{
	"asset":{
		"generator":"Khronos glTF Blender I/O v3.6.27",
		"version":"2.0"
	},
	"extensionsUsed":[
		"KHR_materials_specular",
		"KHR_materials_ior"
	],
	"scene":0,
	"scenes":[
		{
			"name":"Scene",
			"nodes":[
				0
			]
		}
	],
	"nodes":[
		{
			"mesh":0,
			"name":"tq_ARD-node.001",
			"rotation":[
				0.5,
				-0.5,
				0.4999999403953552,
				0.5000000596046448
			],
			"scale":[
				0.0010000000474974513,
				0.0010000000474974513,
				0.0010000000474974513
			],
			"translation":[
				0.8946956396102905,
				0.31464120745658875,
				-0.24592962861061096
			]
		}
	],
	"materials":[
		{
			"doubleSided":true,
			"extensions":{
				"KHR_materials_specular":{
					"specularColorFactor":[
						0,
						0,
						0
					]
				},
				"KHR_materials_ior":{
					"ior":0
				}
			},
			"name":"tq_ARD_front.001",
			"pbrMetallicRoughness":{
				"baseColorTexture":{
					"index":0
				},
				"metallicFactor":0,
				"roughnessFactor":0.5
			}
		},
		{
			"doubleSided":true,
			"extensions":{
				"KHR_materials_specular":{
					"specularColorFactor":[
						0,
						0,
						0
					]
				},
				"KHR_materials_ior":{
					"ior":0
				}
			},
			"name":"back-dil",
			"pbrMetallicRoughness":{
				"baseColorFactor":[
					0.7467698454856873,
					0.4723592698574066,
					0.2568258047103882,
					1
				],
				"metallicFactor":0
			}
		},
		{
			"doubleSided":true,
			"extensions":{
				"KHR_materials_specular":{
					"specularColorFactor":[
						0,
						0,
						0
					]
				},
				"KHR_materials_ior":{
					"ior":0
				}
			},
			"name":"tq_ARD_edge.001",
			"pbrMetallicRoughness":{
				"baseColorTexture":{
					"index":1
				},
				"metallicFactor":0,
				"roughnessFactor":0.5
			}
		},
		{
			"doubleSided":true,
			"extensions":{
				"KHR_materials_specular":{
					"specularColorFactor":[
						0,
						0,
						0
					]
				},
				"KHR_materials_ior":{
					"ior":0
				}
			},
			"name":"tq_ARD_front",
			"pbrMetallicRoughness":{
				"baseColorTexture":{
					"index":2
				},
				"metallicFactor":0,
				"roughnessFactor":0.5
			}
		},
		{
			"doubleSided":true,
			"extensions":{
				"KHR_materials_specular":{
					"specularColorFactor":[
						0,
						0,
						0
					]
				},
				"KHR_materials_ior":{
					"ior":0
				}
			},
			"name":"tq_ARD_back",
			"pbrMetallicRoughness":{
				"baseColorFactor":[
					0.996078372001648,
					0.9019607901573181,
					0.6627451181411743,
					1
				],
				"metallicFactor":0,
				"roughnessFactor":0.5
			}
		},
		{
			"doubleSided":true,
			"extensions":{
				"KHR_materials_specular":{
					"specularColorFactor":[
						0,
						0,
						0
					]
				},
				"KHR_materials_ior":{
					"ior":0
				}
			},
			"name":"tq_ARD_edge",
			"pbrMetallicRoughness":{
				"baseColorTexture":{
					"index":3
				},
				"metallicFactor":0,
				"roughnessFactor":0.5
			}
		}
	],
	"meshes":[
		{
			"name":"tq_ARD-geom.001",
			"primitives":[
				{
					"attributes":{
						"POSITION":0,
						"NORMAL":1,
						"TEXCOORD_0":2
					},
					"indices":3,
					"material":0
				},
				{
					"attributes":{
						"POSITION":4,
						"NORMAL":5,
						"TEXCOORD_0":6
					},
					"indices":7,
					"material":1
				},
				{
					"attributes":{
						"POSITION":8,
						"NORMAL":9,
						"TEXCOORD_0":10
					},
					"indices":11,
					"material":2
				},
				{
					"attributes":{
						"POSITION":12,
						"NORMAL":13,
						"TEXCOORD_0":14
					},
					"indices":15,
					"material":3
				},
				{
					"attributes":{
						"POSITION":16,
						"NORMAL":17,
						"TEXCOORD_0":18
					},
					"indices":19,
					"material":4
				},
				{
					"attributes":{
						"POSITION":20,
						"NORMAL":21,
						"TEXCOORD_0":22
					},
					"indices":23,
					"material":5
				}
			]
		}
	],
	"textures":[
		{
			"sampler":0,
			"source":0
		},
		{
			"sampler":0,
			"source":1
		},
		{
			"sampler":0,
			"source":0
		},
		{
			"sampler":0,
			"source":1
		}
	],
	"images":[
		{
			"bufferView":4,
			"mimeType":"image/jpeg",
			"name":"2"
		},
		{
			"bufferView":13,
			"mimeType":"image/png",
			"name":"tq_ARD-I1"
		}
	],
	"accessors":[
		{
			"bufferView":0,
			"componentType":5126,
			"count":1001,
			"max":[
				362.9841613769531,
				211.09796142578125,
				307.2514953613281
			],
			"min":[
				-365.5024719238281,
				-447.62664794921875,
				-502.27740478515625
			],
			"type":"VEC3"
		},
		{
			"bufferView":1,
			"componentType":5126,
			"count":1001,
			"type":"VEC3"
		},
		{
			"bufferView":2,
			"componentType":5126,
			"count":1001,
			"type":"VEC2"
		},
		{
			"bufferView":3,
			"componentType":5123,
			"count":2700,
			"type":"SCALAR"
		},
		{
			"bufferView":5,
			"componentType":5126,
			"count":980,
			"max":[
				361.39666748046875,
				209.3929443359375,
				305.6640319824219
			],
			"min":[
				-363.9150695800781,
				-445.30462646484375,
				-499.955322265625
			],
			"type":"VEC3"
		},
		{
			"bufferView":6,
			"componentType":5126,
			"count":980,
			"type":"VEC3"
		},
		{
			"bufferView":7,
			"componentType":5126,
			"count":980,
			"type":"VEC2"
		},
		{
			"bufferView":8,
			"componentType":5123,
			"count":2700,
			"type":"SCALAR"
		},
		{
			"bufferView":9,
			"componentType":5126,
			"count":1195,
			"max":[
				362.9841613769531,
				211.09796142578125,
				307.2812194824219
			],
			"min":[
				-365.5024719238281,
				-447.62664794921875,
				-502.27740478515625
			],
			"type":"VEC3"
		},
		{
			"bufferView":10,
			"componentType":5126,
			"count":1195,
			"type":"VEC3"
		},
		{
			"bufferView":11,
			"componentType":5126,
			"count":1195,
			"type":"VEC2"
		},
		{
			"bufferView":12,
			"componentType":5123,
			"count":2670,
			"type":"SCALAR"
		},
		{
			"bufferView":14,
			"componentType":5126,
			"count":1004,
			"max":[
				443.21136474609375,
				1092.5052490234375,
				311.5825500488281
			],
			"min":[
				50.03692626953125,
				699.3306274414062,
				-191.644287109375
			],
			"type":"VEC3"
		},
		{
			"bufferView":15,
			"componentType":5126,
			"count":1004,
			"type":"VEC3"
		},
		{
			"bufferView":16,
			"componentType":5126,
			"count":1004,
			"type":"VEC2"
		},
		{
			"bufferView":17,
			"componentType":5123,
			"count":2700,
			"type":"SCALAR"
		},
		{
			"bufferView":18,
			"componentType":5126,
			"count":931,
			"max":[
				441.62384033203125,
				1091.0167236328125,
				309.99505615234375
			],
			"min":[
				51.934478759765625,
				700.9183959960938,
				-189.59185791015625
			],
			"type":"VEC3"
		},
		{
			"bufferView":19,
			"componentType":5126,
			"count":931,
			"type":"VEC3"
		},
		{
			"bufferView":20,
			"componentType":5126,
			"count":931,
			"type":"VEC2"
		},
		{
			"bufferView":21,
			"componentType":5123,
			"count":2700,
			"type":"SCALAR"
		},
		{
			"bufferView":22,
			"componentType":5126,
			"count":1251,
			"max":[
				443.21136474609375,
				1092.5052490234375,
				311.61224365234375
			],
			"min":[
				50.0369873046875,
				700.2291870117188,
				-191.644287109375
			],
			"type":"VEC3"
		},
		{
			"bufferView":23,
			"componentType":5126,
			"count":1251,
			"type":"VEC3"
		},
		{
			"bufferView":24,
			"componentType":5126,
			"count":1251,
			"type":"VEC2"
		},
		{
			"bufferView":25,
			"componentType":5123,
			"count":2670,
			"type":"SCALAR"
		}
	],
	"bufferViews":[
		{
			"buffer":0,
			"byteLength":12012,
			"byteOffset":0,
			"target":34962
		},
		{
			"buffer":0,
			"byteLength":12012,
			"byteOffset":12012,
			"target":34962
		},
		{
			"buffer":0,
			"byteLength":8008,
			"byteOffset":24024,
			"target":34962
		},
		{
			"buffer":0,
			"byteLength":5400,
			"byteOffset":32032,
			"target":34963
		},
		{
			"buffer":0,
			"byteLength":835065,
			"byteOffset":37432
		},
		{
			"buffer":0,
			"byteLength":11760,
			"byteOffset":872500,
			"target":34962
		},
		{
			"buffer":0,
			"byteLength":11760,
			"byteOffset":884260,
			"target":34962
		},
		{
			"buffer":0,
			"byteLength":7840,
			"byteOffset":896020,
			"target":34962
		},
		{
			"buffer":0,
			"byteLength":5400,
			"byteOffset":903860,
			"target":34963
		},
		{
			"buffer":0,
			"byteLength":14340,
			"byteOffset":909260,
			"target":34962
		},
		{
			"buffer":0,
			"byteLength":14340,
			"byteOffset":923600,
			"target":34962
		},
		{
			"buffer":0,
			"byteLength":9560,
			"byteOffset":937940,
			"target":34962
		},
		{
			"buffer":0,
			"byteLength":5340,
			"byteOffset":947500,
			"target":34963
		},
		{
			"buffer":0,
			"byteLength":767,
			"byteOffset":952840
		},
		{
			"buffer":0,
			"byteLength":12048,
			"byteOffset":953608,
			"target":34962
		},
		{
			"buffer":0,
			"byteLength":12048,
			"byteOffset":965656,
			"target":34962
		},
		{
			"buffer":0,
			"byteLength":8032,
			"byteOffset":977704,
			"target":34962
		},
		{
			"buffer":0,
			"byteLength":5400,
			"byteOffset":985736,
			"target":34963
		},
		{
			"buffer":0,
			"byteLength":11172,
			"byteOffset":991136,
			"target":34962
		},
		{
			"buffer":0,
			"byteLength":11172,
			"byteOffset":1002308,
			"target":34962
		},
		{
			"buffer":0,
			"byteLength":7448,
			"byteOffset":1013480,
			"target":34962
		},
		{
			"buffer":0,
			"byteLength":5400,
			"byteOffset":1020928,
			"target":34963
		},
		{
			"buffer":0,
			"byteLength":15012,
			"byteOffset":1026328,
			"target":34962
		},
		{
			"buffer":0,
			"byteLength":15012,
			"byteOffset":1041340,
			"target":34962
		},
		{
			"buffer":0,
			"byteLength":10008,
			"byteOffset":1056352,
			"target":34962
		},
		{
			"buffer":0,
			"byteLength":5340,
			"byteOffset":1066360,
			"target":34963
		}
	],
	"samplers":[
		{
			"magFilter":9729,
			"minFilter":9987
		}
	],
	"buffers":[
		{
			"byteLength":1071700,
			"uri":"data:application/octet-stream;base64,"
		}
	]
}
